Patient4_TMGait_0pt2_02_left_13_GRF.mot
version=1
nRows=52
nColumns=19
inDegrees=no
endheader
time	F1x	F1y	F1z	M1x	M1y	M1z	F2x	F2y	F2z	M2x	M2y	M2z	EC1x	EC1y	EC1z	EC2x	EC2y	EC2z
29.75	2.4014	106.0633	11.0391	-31.2102	-7.6164	86.8796	-16.6721	643.7656	-42.3863	252.8868	49.3302	601.8282	-0.0592	0.0182	-0.0073	-0.0462	0.0165	0.9585
29.7723	1.3485	88.1949	9.6699	-26.0915	-6.9652	71.7769	-17.7268	672.3749	-45.6326	263.4282	52.7997	628.6017	-0.0592	0.0182	-0.0073	-0.0462	0.0165	0.9585
29.7946	0.13385	69.3317	8.0824	-20.6346	-6.1828	56.0722	-19.1602	706.1207	-49.0833	276.1101	56.5507	659.6356	-0.0592	0.0182	-0.0073	-0.0462	0.0165	0.9585
29.8169	-0.99492	51.1155	6.3839	-15.3221	-5.2688	41.112	-20.8512	743.3175	-52.3501	290.3561	60.1587	693.2021	-0.0592	0.0182	-0.0073	-0.0462	0.0165	0.9585
29.8391	-1.7672	34.9334	4.6996	-10.5735	-4.236	27.9817	-22.6007	781.941	-55.0786	305.4161	63.2	727.3219	-0.0592	0.0182	-0.0073	-0.0462	0.0165	0.9585
29.8614	-2.0459	21.7242	3.1675	-6.6767	-3.151	17.3711	-24.1688	819.6156	-57.0341	320.3536	65.3475	759.7664	-0.0592	0.0182	-0.0073	-0.0462	0.0165	0.9585
29.8837	-1.961	11.8723	1.9128	-3.7533	-2.1552	9.52	-25.3365	853.6014	-58.143	334.0436	66.4325	788.0642	-0.0592	0.0182	-0.0073	-0.0462	0.0165	0.9585
29.906	-1.7028	5.1535	0.97982	-1.7413	-1.3477	4.1992	-25.9431	881.0848	-58.4661	345.3017	66.4386	809.7609	-0.0592	0.0182	-0.0073	-0.0462	0.0165	0.9585
29.9283	-1.4018	0.95023	0.34155	-0.46042	-0.75179	0.87293	-25.8811	899.6732	-58.1488	353.0965	65.4581	822.8457	-0.0592	0.0182	-0.0073	-0.0462	0.0165	0.9585
29.9506	-1.135	-1.4908	-0.063389	0.313	-0.34645	-1.0961	-25.0727	907.7905	-57.3805	356.7254	63.6474	826.0678	-0.0592	0.0182	-0.0073	-0.0462	0.0165	0.9585
29.9729	-0.93756	-2.8939	-0.30626	0.79595	-0.088629	-2.3076	-23.4424	904.9495	-56.3742	355.9319	61.1953	819.1504	-0.0592	0.0182	-0.0073	-0.0462	0.0165	0.9585
29.9951	-0.81484	-3.8619	-0.45077	1.1698	0.070422	-3.2536	-20.9501	891.8022	-55.3494	350.932	58.3153	802.8223	-0.0592	0.0182	-0.0073	-0.0462	0.0165	0.9585
30.0174	-0.74607	-4.8233	-0.54476	1.5625	0.17667	-4.2821	-17.6246	870.0192	-54.4856	342.3716	55.2159	778.7058	-0.0592	0.0182	-0.0073	-0.0462	0.0165	0.9585
30.0397	-0.68581	-5.9953	-0.61596	2.0346	0.26581	-5.5581	-13.5609	842.0384	-53.8693	331.2294	52.0495	749.0757	-0.0592	0.0182	-0.0073	-0.0462	0.0165	0.9585
30.062	-0.5684	-7.3423	-0.66933	2.5628	0.36054	-7.0151	-8.9026	810.7429	-53.4777	318.6873	48.8902	716.5467	-0.0592	0.0182	-0.0073	-0.0462	0.0165	0.9585
30.0843	-0.31574	-8.53	-0.68273	3.023	0.46477	-8.3047	-3.834	779.1053	-53.2068	305.979	45.749	683.7578	-0.0592	0.0182	-0.0073	-0.0462	0.0165	0.9585
30.1066	0.15959	-8.878	-0.60831	3.1719	0.56129	-8.7489	1.397	749.8125	-52.9211	294.2267	42.6244	653.0667	-0.0592	0.0182	-0.0073	-0.0462	0.0165	0.9585
30.1289	0.94629	-7.3223	-0.37465	2.6346	0.60932	-7.3012	6.5072	724.9097	-52.4832	284.2879	39.5203	626.2619	-0.0592	0.0182	-0.0073	-0.0462	0.0165	0.9585
30.1511	2.1164	-2.4014	0.11231	0.89972	0.54216	-2.5316	11.2213	705.419	-51.7763	276.5943	36.448	604.2652	-0.0592	0.0182	-0.0073	-0.0462	0.0165	0.9585
30.1734	3.6989	7.6769	0.96102	-2.6597	0.26117	7.3186	15.27	690.9808	-50.725	271.0028	33.4493	586.8566	-0.0592	0.0182	-0.0073	-0.0462	0.0165	0.9585
30.1957	5.6341	24.8354	2.2738	-8.7179	-0.3583	24.141	18.3944	679.7199	-49.3012	266.7446	30.6024	572.5883	-0.0592	0.0182	-0.0073	-0.0462	0.0165	0.9585
30.218	7.7165	50.7414	4.1192	-17.8594	-1.4551	49.5783	20.3707	668.4806	-47.4947	262.5289	27.9881	558.9833	-0.0592	0.0182	-0.0073	-0.0462	0.0165	0.9585
30.2403	9.5149	86.1845	6.4871	-30.359	-3.1681	84.4159	21.0381	653.4351	-45.2717	256.797	25.648	543.0189	-0.0592	0.0182	-0.0073	-0.0462	0.0165	0.9585
30.2626	10.2911	130.3861	9.2915	-45.9359	-5.6613	127.905	20.3513	631.0228	-42.5657	248.1058	23.5551	521.8544	-0.0592	0.0182	-0.0073	-0.0462	0.0165	0.9585
30.2849	9.518	180.8672	12.4452	-63.7033	-9.016	177.6086	18.4497	599.0617	-39.3287	235.5777	21.6276	493.7093	-0.0592	0.0182	-0.0073	-0.0462	0.0165	0.9585
30.3071	7.3454	234.3096	15.8544	-82.4869	-13.0721	230.1753	15.6833	557.562	-35.599	219.2233	19.7683	458.5114	-0.0592	0.0182	-0.0073	-0.0462	0.0165	0.9585
30.3294	4.2625	288.4981	19.2827	-101.5163	-17.412	283.2821	12.5398	508.7347	-31.5101	199.9401	17.8907	417.9145	-0.0592	0.0182	-0.0073	-0.0462	0.0165	0.9585
30.3517	0.75282	342.3825	22.499	-120.435	-21.6279	335.7843	9.4484	455.9388	-27.2559	179.0879	15.9665	374.4816	-0.0592	0.0182	-0.0073	-0.0462	0.0165	0.9585
30.374	-2.7389	395.1487	25.3767	-138.9613	-25.4393	386.7865	6.6582	402.5196	-23.0475	158.0185	14.0392	330.7792	-0.0592	0.0182	-0.0073	-0.0462	0.0165	0.9585
30.3963	-5.7713	445.8478	27.9126	-156.7521	-28.6992	435.2608	4.2521	351.2105	-19.0974	137.8301	12.2115	288.9103	-0.0592	0.0182	-0.0073	-0.0462	0.0165	0.9585
30.4186	-7.9618	493.2699	30.1937	-173.3676	-31.3791	479.9594	2.2157	303.9536	-15.5875	119.2958	10.5975	250.3723	-0.0592	0.0182	-0.0073	-0.0462	0.0165	0.9585
30.4409	-9.0719	536.0166	32.2853	-188.3058	-33.488	519.5135	0.48976	261.9423	-12.6305	102.8827	9.2774	216.0881	-0.0592	0.0182	-0.0073	-0.0462	0.0165	0.9585
30.4631	-9.0011	572.7893	34.1241	-201.1122	-34.9627	552.7178	-0.9897	225.7734	-10.2501	88.8126	8.2735	186.5313	-0.0592	0.0182	-0.0073	-0.0462	0.0165	0.9585
30.4854	-7.7551	602.614	35.5239	-211.4579	-35.6553	578.7395	-2.2495	195.6458	-8.4144	77.1452	7.5596	161.8787	-0.0592	0.0182	-0.0073	-0.0462	0.0165	0.9585
30.5077	-5.447	624.8597	36.2766	-219.1364	-35.4254	597.1211	-3.2597	171.501	-7.089	67.8349	7.0958	142.108	-0.0592	0.0182	-0.0073	-0.0462	0.0165	0.9585
30.53	-2.2853	639.3098	36.2551	-224.0843	-34.2396	607.8296	-3.9549	153.0465	-6.2588	60.7444	6.8512	126.9957	-0.0592	0.0182	-0.0073	-0.0462	0.0165	0.9585
30.5523	1.481	646.2853	35.4486	-226.4228	-32.1844	611.3552	-4.2943	139.7239	-5.9023	55.635	6.8014	116.0865	-0.0592	0.0182	-0.0073	-0.0462	0.0165	0.9585
30.5746	5.5953	646.6515	33.9411	-226.4569	-29.4348	608.7036	-4.2872	130.7714	-5.9641	52.1943	6.9137	108.7525	-0.0592	0.0182	-0.0073	-0.0462	0.0165	0.9585
30.5969	9.7959	641.6724	31.8796	-224.6253	-26.2244	601.2492	-3.971	125.4519	-6.3535	50.1288	7.1407	104.3801	-0.0592	0.0182	-0.0073	-0.0462	0.0165	0.9585
30.6191	13.8192	632.7744	29.4488	-221.4175	-22.8182	590.5167	-3.3788	123.2229	-6.9708	49.2303	7.4281	102.5143	-0.0592	0.0182	-0.0073	-0.0462	0.0165	0.9585
30.6414	17.3906	621.368	26.8494	-217.3102	-19.4913	578.0084	-2.5337	123.6811	-7.7371	49.349	7.7309	102.8138	-0.0592	0.0182	-0.0073	-0.0462	0.0165	0.9585
30.6637	20.2274	608.8195	24.2754	-212.7559	-16.5017	565.1555	-1.4662	126.3497	-8.6021	50.3053	8.0263	104.8852	-0.0592	0.0182	-0.0073	-0.0462	0.0165	0.9585
30.686	22.0524	596.5564	21.9154	-208.2208	-14.0817	553.3985	-0.24153	130.423	-9.5261	51.7877	8.3082	108.0764	-0.0592	0.0182	-0.0073	-0.0462	0.0165	0.9585
30.7083	22.6262	586.2409	19.9866	-204.2494	-12.4686	544.3232	1.0333	134.6448	-10.4494	53.3062	8.5668	111.3752	-0.0592	0.0182	-0.0073	-0.0462	0.0165	0.9585
30.7306	21.8289	579.8649	18.7265	-201.5105	-11.8785	539.7302	2.2412	137.4604	-11.2805	54.2553	8.7725	113.5285	-0.0592	0.0182	-0.0073	-0.0462	0.0165	0.9585
30.7529	19.7155	579.56	18.3594	-200.7371	-12.464	541.4635	3.265	137.3824	-11.9085	54.0596	8.8796	113.3309	-0.0592	0.0182	-0.0073	-0.0462	0.0165	0.9585
30.7751	16.4977	587.2098	19.0327	-202.5854	-14.2745	551.0815	3.9818	133.4055	-12.2281	52.3363	8.8475	109.9635	-0.0592	0.0182	-0.0073	-0.0462	0.0165	0.9585
30.7974	12.4979	603.9522	20.7658	-207.4587	-17.2246	569.4472	4.29	125.242	-12.1673	48.9857	8.6546	103.1932	-0.0592	0.0182	-0.0073	-0.0462	0.0165	0.9585
30.8197	8.0749	629.6895	23.4669	-215.3336	-21.1232	596.3024	4.1392	113.3154	-11.7018	44.1857	8.2998	93.3666	-0.0592	0.0182	-0.0073	-0.0462	0.0165	0.9585
30.842	3.5563	662.897	26.9557	-225.6958	-25.7069	630.0949	3.5413	98.5871	-10.8557	38.3222	7.798	81.2656	-0.0592	0.0182	-0.0073	-0.0462	0.0165	0.9585
30.8643	-0.79417	700.8588	30.9797	-237.6259	-30.6659	668.1932	2.5605	82.3242	-9.6927	31.8968	7.1765	67.9218	-0.0592	0.0182	-0.0073	-0.0462	0.0165	0.9585
30.8866	-4.7753	740.2603	35.2499	-250.0052	-35.67	707.4187	1.3172	65.851	-8.3017	25.428	6.4643	54.4159	-0.0592	0.0182	-0.0073	-0.0462	0.0165	0.9585
